<?xml version="1.0" encoding="utf-8"?>
<!-- Generator: Adobe Illustrator 25.2.0, SVG Export Plug-In . SVG Version: 6.00 Build 0)  -->
<svg version="1.1" id="Layer_1" xmlns="http://www.w3.org/2000/svg" xmlns:xlink="http://www.w3.org/1999/xlink" x="0px" y="0px"
	 viewBox="0 0 500 500" style="enable-background:new 0 0 500 500;" xml:space="preserve">
<style type="text/css">
	.st0{fill:#FFFFFF;}
</style>
<g>
	<path class="st0" d="M333.94,180.11c-4-1.47-8.31-0.49-12.82,2.92c-4.56,3.44-6.93,7.56-7.05,12.25
		c-0.24,9.4,9.03,17.29,9.43,17.62c0.51,0.43,1.14,0.64,1.77,0.64c0.43,0,0.86-0.1,1.26-0.3c0.99-0.51,1.57-1.55,1.49-2.66
		c-0.22-2.97,0.51-6.34,1.43-9.21c1.55,2.04,3.51,3.29,4.88,3.82c0.94,0.36,2,0.19,2.77-0.47c2.38-2.01,7.06-4.99,7.11-5.02
		c0.98-0.62,1.47-1.8,1.21-2.93C345.11,195.38,342.15,183.12,333.94,180.11z M335.07,199.29c-1.18-0.91-2.71-2.71-2.54-5.87
		c0.07-1.3-0.77-2.47-2.02-2.81c-1.25-0.34-2.58,0.23-3.18,1.38c-0.17,0.32-3.08,5.94-4.32,12.29c-1.8-2.43-3.51-5.62-3.43-8.86
		c0.08-2.96,1.67-5.57,4.86-7.97c2.16-1.63,4.12-2.45,5.85-2.45c0.61,0,1.19,0.1,1.74,0.3c3.83,1.4,6.38,7.25,7.51,10.86
		C338.29,196.98,336.57,198.16,335.07,199.29z"/>
	<path class="st0" d="M233.03,225.59c-4.89,0.75-8.73,3-11.42,6.69c-5.76,7.92-3.92,19.65-3.84,20.14c0.2,1.21,1.17,2.14,2.38,2.29
		c0.11,0.01,0.23,0.02,0.34,0.02c1.09,0,2.09-0.64,2.53-1.66c0.05-0.12,5.48-12.43,14.74-15.32c4.13-1.29,8.36-0.53,12.95,2.32
		c0.93,0.58,2.12,0.55,3.02-0.07c0.9-0.62,1.35-1.72,1.14-2.8C253.9,232.18,248.07,223.29,233.03,225.59z M236.09,232.49
		c-5.4,1.69-9.63,5.62-12.64,9.42c0.44-2.23,1.24-4.51,2.63-6.4c1.81-2.49,4.36-3.95,7.78-4.47c1.42-0.22,2.72-0.31,3.9-0.31
		c2.35,0,4.24,0.39,5.76,0.99C241.01,231.47,238.53,231.73,236.09,232.49z"/>
	<path class="st0" d="M242.59,239.96c-6.8,0-12.33,5.53-12.33,12.33s5.53,12.33,12.33,12.33s12.33-5.53,12.33-12.33
		S249.39,239.96,242.59,239.96z M242.59,259.11c-3.76,0-6.82-3.06-6.82-6.82c0-3.27,2.31-6.01,5.39-6.66
		c-0.53,0.89-0.85,1.91-0.85,3.02c0,3.27,2.65,5.93,5.93,5.93c1.11,0,2.13-0.32,3.02-0.85
		C248.59,256.79,245.85,259.11,242.59,259.11z"/>
	<path class="st0" d="M335.52,225.59c0,6.8,5.53,12.33,12.33,12.33c6.8,0,12.33-5.53,12.33-12.33s-5.53-12.33-12.33-12.33
		C341.05,213.26,335.52,218.79,335.52,225.59z M354.67,225.59c0,3.76-3.06,6.82-6.82,6.82c-1.24,0-2.39-0.34-3.39-0.91
		c0.07,0,0.14,0.02,0.22,0.02c3.27,0,5.93-2.65,5.93-5.93s-2.65-5.93-5.93-5.93c-0.07,0-0.14,0.02-0.22,0.02
		c1-0.58,2.16-0.91,3.39-0.91C351.61,218.77,354.67,221.83,354.67,225.59z"/>
	<path class="st0" d="M415.46,318.4c-6.16-17.1-7.31-34.35-3.13-47.33c4.48-13.94,4.35-30.01-0.29-37.38
		c-3.42-5.42-19.26-11.79-27.88-14.95c0.5-0.74,0.79-1.47,0.95-2.11c0.98-3.86-1.74-7.25-2.05-7.63c-0.64-0.77-1.66-1.13-2.64-0.94
		c-19.65,3.77-27.21-14.66-29.25-21.23l5.03-2.08c0.85-0.35,1.47-1.1,1.65-2c0.18-0.9-0.09-1.83-0.74-2.49
		c-6.65-6.74-16.5-9.99-28.5-9.38c-5.67,0.29-10.52,1.36-13.36,2.12c-1.62-3.79-4.57-7.57-8.82-11.33
		c-1.04-4.02-5.45-23.51,2.7-36.48c3.75-5.97,9.78-9.76,17.9-11.36c1.46,1.4,2.71,2.65,3.69,3.67c-4.96,2.81-8.2,7.31-8.2,12.37
		c0,8.51,9.07,15.43,20.22,15.43c11.15,0,20.22-6.92,20.22-15.43c0-7.35-6.78-13.5-15.81-15.04c-0.53-0.75-1.31-1.87-2.34-3.3
		c11.43,1.97,21.28,6.75,29.33,14.29c4.49,4.21,7.33,8.32,8.83,10.8c-1.82,1.01-3.46,2.21-4.84,3.6c-3.5,3.52-5.02,7.75-4.29,11.9
		c1.25,7.1,8.64,11.77,17.72,11.77c1.57,0,3.19-0.14,4.84-0.43c5.16-0.91,9.79-3.21,13.03-6.47c3.5-3.52,5.02-7.75,4.29-11.9
		c-1.22-6.9-8.23-11.49-16.96-11.75c0.63-10.62,1.14-45.35-17.05-63.97c-19.72-20.18-68.02-9.41-77.37-7.08
		c-14.7-13.66-30.76-24.56-44.55-24.56c-0.23,0-0.47,0-0.7,0.01c-15.52,0.42-30.56,11.75-44.69,33.66c-0.32,0.5-0.64,0.99-0.95,1.49
		c-4.9-4.58-33.45-30.19-46.97-18.64c-9.42,6.92-17.97,20.82-22.56,36.53c-23.85,6.61-40.41,18.97-49.23,36.8
		c-10.71,21.64-6.7,44.63-2.52,55.49c-3.19,2.7-5.15,6.26-5.15,10.16c0,8.43,9.05,15.28,20.18,15.28s20.18-6.86,20.18-15.28
		c0-6.26-5-11.65-12.14-14.01c2.12-9.49,7.21-25.98,14.65-34.26c0.46,5.33,1.47,10.12,2.1,12.72c-3.07,2.26-4.94,5.4-4.94,8.92
		c0,7.04,7.47,12.55,17.01,12.55c9.54,0,17.01-5.51,17.01-12.55c0-5.23-4.14-9.62-10.18-11.52c0.32-1.81,0.82-4.4,1.44-7.16
		c9.59,10.72,18.21,29.55,22.03,39.49c-2.7,3.54-3.81,8.12-2.99,12.51c-5.03-2.57-12.68-5.43-20.81-4.64
		c-0.96,0.09-1.81,0.69-2.22,1.56c-0.42,0.88-0.34,1.91,0.2,2.71c0.72,1.08,2.29,3.9,2.83,6.52c-6.01,0.97-21.05,4.35-34.12,15.02
		c-0.81,0.66-1.18,1.73-0.95,2.75c0.23,1.02,1.02,1.82,2.04,2.07c0.05,0.01,4,0.97,7.47,2.13c-6.64,11.59-32.03,55.55-41.31,66.96
		c-1.68,2.07-3.29,3.94-4.72,5.6c-8.09,9.41-12.97,15.08-5.61,27.77c1.68,2.9,3.16,6.41,4.6,9.81c3.28,7.79,6.38,15.14,12.25,15.88
		c0.31,0.04,0.63,0.06,0.94,0.06c3.61,0,7.29-2.61,11.48-8.12c1.31-1.36,13.14-13.78,25.84-29.46c-0.79,8.16-0.37,18.52,5.87,22.6
		c0.69,0.45,1.56,0.57,2.35,0.31c0.79-0.25,1.43-0.85,1.73-1.62c0.02-0.05,1.64-4.1,4.92-6.72c1.4,8.94,3.45,32.8-9.78,52.39
		c-0.51,0.76-0.61,1.71-0.28,2.56c0.15,0.38,1.03,2.3,3.59,3.29c2.22,0.85,4.98,0.7,8.22-0.43c2.01,10.86,5.07,32.02,2.34,39.24
		c-0.47,1.24,0.01,2.64,1.14,3.33c0.29,0.18,3.44,2.04,8.59,3.34c-0.34,2.5-1.81,6.27-7.47,6.94c-0.8,0.09-1.52,0.53-1.96,1.2
		c-0.45,0.67-0.58,1.5-0.37,2.27c0.24,0.86,1.76,4.71,9.89,4.43c-0.16,1.31-0.59,2.9-1.61,4.21c-1.24,1.59-3.24,2.55-5.92,2.85
		c-1.51,0.17-2.61,1.53-2.44,3.04c0.15,1.41,1.35,2.46,2.74,2.46c0.1,0,0.2-0.01,0.3-0.02c4.25-0.47,7.52-2.14,9.71-4.99
		c3.6-4.67,2.75-10.72,2.71-10.98c-0.22-1.5-1.61-2.54-3.11-2.33c-0.53,0.08-1.03,0.13-1.48,0.17c2.87-2.46,3.97-5.8,4.38-8.28
		c1.51,0.17,3.1,0.29,4.79,0.29c5.6,0,12.15-1.12,19.26-4.47c1.38-0.65,1.97-2.29,1.32-3.67c-0.65-1.38-2.29-1.97-3.67-1.32
		c-9.33,4.39-17.5,4.43-23.36,3.37c-0.21-0.07-0.43-0.11-0.66-0.12c-3.05-0.61-5.43-1.51-6.93-2.18c1.12-5.2,0.96-13.56-0.46-24.93
		c-1.21-9.69-2.95-18.2-2.96-18.29c-0.17-0.84-0.72-1.55-1.49-1.93c-0.77-0.38-1.67-0.37-2.44,0.01c-3.18,1.58-5.2,1.89-6.35,1.78
		c16.08-26.13,8.77-56.84,8.44-58.17c-0.19-0.76-0.69-1.4-1.37-1.77c-0.69-0.37-1.5-0.43-2.24-0.16c-4.39,1.57-7.36,5.04-9.12,7.77
		c-2.72-5.57-1.52-17.05,0.24-24.45c2.18-2.85,4.32-5.76,6.39-8.68c0.36,1.16,0.69,2.98,0.69,5.8c0,2.82,0.97,4.39,2.88,4.69
		c0.23,0.03,0.45,0.06,0.66,0.06c2.16,0,4.03-2.1,8.75-13.86c2.81-7.01,6.02-16.08,8.58-24.26c4.8-15.33,14.41-13.57,14.79-13.49
		c1.48,0.33,2.96-0.59,3.3-2.08c0.34-1.49-0.59-2.96-2.08-3.3c-0.15-0.03-14.9-3.13-21.27,17.22c-3.68,11.77-7.8,22.73-10.63,29.12
		c-1.15-5.38-3.77-6.64-4.73-6.92l-0.09,0.31c-1.21-0.6-2.7-0.25-3.49,0.9c-16.95,24.56-40.49,49-40.73,49.24
		c-0.08,0.08-0.15,0.16-0.22,0.25c-4.34,5.75-6.65,6.14-7.43,6.04c-2.71-0.34-5.56-7.11-7.85-12.54c-1.5-3.56-3.05-7.24-4.91-10.44
		c-5.4-9.29-2.77-12.34,5.02-21.4c1.45-1.68,3.09-3.59,4.82-5.72c10.94-13.46,42.1-68.2,43.43-70.52c0.39-0.68,0.47-1.49,0.22-2.24
		c-0.25-0.74-0.8-1.35-1.52-1.66c-1.64-0.71-3.75-1.41-5.7-1.99c14.03-9.34,29.14-10.84,29.31-10.85c1.33-0.12,2.38-1.17,2.5-2.5
		c0.25-2.77-0.63-5.67-1.62-7.96c8.3,0.67,15.61,5.16,17.9,6.69l2.01,7.63c0.47,1.79,1.69,3.28,3.35,4.09
		c0.87,0.43,1.82,0.64,2.77,0.64c0.85,0,1.7-0.17,2.5-0.51c18.6-7.98,35.48-13.97,50.54-18.47c0.96,0.66,2.63,1.94,3.98,3.73
		c-4.8,2.5-14.32,8.52-18.48,18.57c-0.45,1.08-0.16,2.32,0.7,3.1c0.52,0.47,1.18,0.71,1.85,0.71c0.44,0,0.89-0.11,1.3-0.33
		c0.16-0.08,16.11-8.46,32.47-3.67c8.87,2.6,12.55-0.01,14.07-2.65c3.32-5.75-1.84-15.32-5.53-18.84c-2.9-2.76-6.76-4.7-11.46-5.79
		c5.24-1.28,10.18-2.36,14.83-3.28c4.73,4.43,20.48,19.71,27.9,33.13c0.06,0.11,0.13,0.22,0.21,0.32c1.46,1.94,2.78,2.5,3.82,2.5
		c0.7,0,1.27-0.26,1.68-0.52c1.51-0.98,3.4-2.2-1.65-19.23c-1.8-6.09-4.52-13.98-7.3-20.01c10.42-1.1,17.74-1.18,21.69-1.08
		c0.9,0.02,1.75-0.4,2.29-1.12c0.26-0.35,2.27-3.25,1.83-8.04c5.86-1.56,22.01-4.79,33.25,3.03l-3.1,1.28
		c-1.24,0.51-1.93,1.84-1.64,3.15c2.31,10.41,11.44,28.27,30.15,28.27c1.36,0,2.76-0.09,4.22-0.29c0.21,0.5,0.33,1.05,0.21,1.48
		c-0.23,0.86-1.55,1.5-2.31,1.81c-1.08,0.43-1.77,1.48-1.74,2.64c0.03,1.16,0.78,2.17,1.87,2.54c10.94,3.7,27.43,10.59,29.8,14.36
		c3.26,5.17,4.07,19.16-0.29,32.75c-4.2,13.07-3.52,29.92,1.81,46.8c-2.52-0.77-5.96-2.79-8.92-7.89c0.25-2.56,0.45-5.25,0.58-8.07
		c0.3-2.5,3.42-33.31-19.57-52.05c-4.11-3.76-8.95-4.81-13.62-4.95c-2.34-0.46-5.05-0.93-8.12-1.33
		c-11.04-1.44-29.16-2.38-52.84,1.32c-2.07,0.2-15.12,2.67-43.55,32.75c-9.93,10.5-15.88,17.24-20.23,22.16
		c-8.45,9.55-9.97,11.27-21.59,18.97c-12.99,8.6-17.96,21.1-19.82,28.33c-2.59-3.93-5.31-11.14-2.48-22.45
		c0.26-1.05-0.11-2.15-0.95-2.82c-0.84-0.67-1.99-0.8-2.96-0.32c-0.74,0.37-18.06,9.53-9.58,48.77c4,18.53,10.09,31.23,15.46,42.44
		c5.66,11.81,10.13,21.14,10.55,33.57c0.05,1.49,1.27,2.66,2.75,2.66c0.03,0,0.06,0,0.1,0c1.52-0.05,2.71-1.33,2.66-2.85
		c-0.46-13.58-5.39-23.86-11.09-35.76c-5.24-10.93-11.17-23.32-15.04-41.22c-4.16-19.27-1.66-30.29,1.39-36.29
		c-0.4,15.33,8.8,22.12,9.27,22.46c0.8,0.58,1.86,0.67,2.76,0.26c0.9-0.41,1.51-1.28,1.6-2.26c0.02-0.19,1.87-18.95,18.43-29.92
		c12.23-8.1,14.23-10.37,22.68-19.91c4.32-4.89,10.25-11.59,20.11-22.02c3.18-3.36,6.14-6.34,8.91-9.01
		c-1.99,5.97-3.97,14.26-5.2,25.52c-2.97,27.35-6.41,35.61-6.44,35.68c-0.62,1.39,0.01,3.02,1.41,3.64
		c0.36,0.16,0.74,0.24,1.12,0.24c1.06,0,2.07-0.61,2.52-1.64c0.15-0.35,3.78-8.78,6.88-37.31c2.7-24.83,9.16-34.19,10.19-35.54
		c14.18-11.74,20.61-12.6,20.65-12.61c0.09-0.01,0.18-0.02,0.27-0.03c13.95-2.19,25.97-2.74,35.88-2.47
		c-7.12,3.63-12.62,10.68-17.41,17.45c-4.33,6.12-3.96,13.34,1.04,20.32c2.86,4,7.73,5.8,12.41,4.61c8.88-2.28,9.87-8.86,9.16-12.03
		c-0.04-0.18-0.11-0.37-0.18-0.54c-3.36-7.52,4.31-11.25,5.2-11.65c2.14-0.97,3.06-0.46,3.36-0.3c1.57,0.87,2.87,3.95,3.47,8.25
		c0,0.04,0.02,0.12,0.03,0.16c0.07,0.41,1.58,10.13-17.56,17.97c-0.9,0.37-1.55,1.19-1.69,2.16c-0.14,0.97,0.24,1.94,1.01,2.55
		c0.43,0.35,10.59,8.35,25.56,8.35c0.25,0,0.51,0,0.76-0.01c0.04,0,0.08,0,0.12-0.01c16.9-1.03,20.39-18.22,19.87-27.17
		c-0.05-0.84-0.48-1.62-1.17-2.1c-0.69-0.48-1.57-0.62-2.38-0.38c-4.28,1.29-7.52,1.29-9.39-0.02c-1.79-1.26-1.93-3.49-1.93-3.55
		c0-0.12-0.01-0.23-0.03-0.35c-0.23-1.49-0.48-6.23,1.29-8.43c0.58-0.72,1.31-1.06,2.37-1.13c5.48-0.34,6.98,5.41,7.13,6.05
		c0,0,0,0,0,0.01c0.33,1.49,1.8,2.43,3.29,2.1c0.8-0.18,1.44-0.69,1.81-1.36c7.84,15.59,5.92,32.25,5.89,32.48
		c-0.01,0.07-0.02,0.15-0.02,0.22c-0.69,14.77-3.01,25.7-6.88,32.49c-1.44,2.53-3.06,3.74-4.78,3.57c-2.78-0.25-6-3.73-7.05-6.72
		c-2.76-7.41-4.89-10.4-8.77-12.28c-5.37-2.61-11.03-0.11-16.45,4.23c-0.24,0.14-0.45,0.32-0.64,0.53
		c-3.98,3.3-7.81,7.51-11.29,11.34c-2.1,2.31-4.08,4.5-5.77,6.1c-7.13,6.79-28.16,9.47-57.69,7.37c-14.2-1.02-24.12,2.3-27.88,9.33
		c-3.22,6.01-1.55,13.75,4.68,21.8c3.65,4.71,8.38,8.75,14.07,12c11.49,6.57,27.13,11.38,45.25,13.91
		c13.99,1.95,29.08,2.5,41.38,1.5c12.74-1.03,21.04-5.16,29.86-9.55c2.21-1.1,4.07-2.12,5.57-2.95c0.31-0.17,0.63-0.34,0.94-0.51
		c-0.51,1.79-1.23,4-1.83,5.84c-1.03,3.18-2.76,7.41-6.99,11.87c-14.46,15.24-35.28,11.28-65.4,3.5
		c-30.15-7.79-62.62,1.34-63.99,1.73c-1.46,0.42-2.31,1.95-1.89,3.41c0.42,1.46,1.95,2.31,3.41,1.89c0.32-0.09,32.42-9.1,61.09-1.69
		c7.93,2.05,15.26,3.84,22.05,5.12c0.31,3.7,1.71,10.85,7.72,16.4c-1.02,0.62-2.5,0.97-4.48,0.17c-0.97-0.39-2.08-0.2-2.86,0.49
		c-0.78,0.69-1.11,1.77-0.84,2.78c0.33,1.24,3.46,12.22,11.41,14.74c0.28,0.09,0.56,0.13,0.83,0.13c1.17,0,2.26-0.75,2.63-1.93
		c0.46-1.45-0.34-3-1.79-3.46c-2.73-0.87-4.84-3.98-6.18-6.8c3.93-0.4,6.63-3.11,7.73-4.99c0.72-1.24,0.37-2.82-0.8-3.64
		c-5.51-3.87-7.2-9.47-7.72-12.94c4.53,0.67,8.81,1.05,12.85,1.05c11.91,0,21.8-3.29,30.22-12.17c5.05-5.32,7.12-10.52,8.23-13.96
		c2.49-7.69,3.53-10.91,2.2-12.88c1.98-2.1,3.38-4.39,3.84-6.85c1.01-5.4-2.25-10.48-9.69-15.12c-0.37-4.44-1.51-9.56-5.59-10.78
		c-1.2-0.36-5.31-0.94-10.4,5.25c-0.86-0.25-1.71-0.49-2.53-0.72c-5.97-1.69-10.96-3.1-15.91-5.41c-3.55-6.97-1.37-21.64,0.02-27.93
		c3.75-2.94,7.37-4.62,10.19-3.25c2.17,1.06,3.55,2.64,6,9.2c1.65,4.71,6.48,9.86,11.73,10.34c2.3,0.21,6.66-0.33,10.07-6.33
		c2.68-4.71,4.69-11.05,5.99-18.95c5.02,5.29,10.42,6.01,12.93,6.01c0.81,0,1.32-0.07,1.42-0.09c0.81-0.13,1.52-0.61,1.94-1.32
		C415.66,320.04,415.74,319.18,415.46,318.4z M263.55,217.56c-0.72,1.25-3.69,1.29-7.75,0.11c-4.24-1.24-8.4-1.72-12.33-1.72
		c-6.29,0-11.95,1.24-16.22,2.57c5.83-6.77,13.97-10.14,14.08-10.18c0.69-0.28,1.24-0.83,1.52-1.52c0.28-0.69,0.27-1.47-0.03-2.15
		c-0.77-1.76-1.83-3.27-2.94-4.54c8.6-0.24,15.15,1.57,19.1,5.33C262.07,208.4,264.95,215.15,263.55,217.56z M304.43,122.3
		c-6.96,11.09-6.13,25.56-4.72,34.22c-2.72-1.86-5.74-3.71-9.1-5.56c-1.1-0.6-2.46-0.39-3.32,0.52l-8.53,8.97
		c-0.87-3.32-1.79-7.24-2.61-11.51c11.48-29.05,27.14-34.92,36.83-35.41C309.53,115.82,306.67,118.75,304.43,122.3z M304.24,109.61
		c-14.2,4.42-23.66,17.1-29.71,29.35c-2.21-16.99-1.71-35.66,8.41-41.89c9.92-6.11,22.85,0.27,31.94,6.7c2.29,1.62,4.45,3.32,6.45,5
		C318.05,108.04,311.74,107.27,304.24,109.61z M274.33,165.12l-2.46,2.58l-18.69-7.38c-1.08-0.43-2.32-0.13-3.09,0.75l-6.07,6.93
		c1.02-6.41,3.12-16.86,7.49-32.65c4.92-15.51,12.71-25.04,19.23-30.68C263.56,124.58,272.14,157.45,274.33,165.12z M357.43,129.9
		c0,5.37-6.73,9.91-14.7,9.91c-7.97,0-14.7-4.54-14.7-9.91c0-5.37,6.73-9.91,14.7-9.91C350.7,119.99,357.43,124.53,357.43,129.9z
		 M408.27,146.07c0.41,2.33-0.57,4.84-2.77,7.05c-2.45,2.47-6.03,4.22-10.08,4.93c-7.86,1.39-15.27-1.76-16.17-6.87
		c-0.41-2.33,0.57-4.84,2.77-7.05c1.54-1.55,3.54-2.82,5.81-3.73c0.02-0.01,0.04-0.01,0.06-0.02c0,0,0.01,0,0.01-0.01
		c1.32-0.52,2.72-0.92,4.2-1.18c1.26-0.22,2.51-0.33,3.72-0.33C402.17,138.88,407.51,141.78,408.27,146.07z M332.11,63.22
		c14.45-1,33.76-0.07,43.63,10.04c16.86,17.25,15.98,51.59,15.43,60.51c-0.01,0-0.02,0-0.03,0c-1.04,0.18-2.05,0.44-3.03,0.73
		c-3.83-6.72-17.45-26.17-47.85-29.11c-7.4-9.86-19.49-25.03-33.17-38.52C312.48,65.69,321.81,63.93,332.11,63.22z M257.22,43.28
		c0.19,0,0.38-0.01,0.57-0.01c13.48,0,32.36,12.83,54.64,37.15c12.46,13.59,22.82,27.39,27.75,34.19c-1.37,0.13-2.69,0.37-3.96,0.7
		c-6.22-6.78-34.66-35.74-55.87-23.11c-2.82,1.01-23.99,9.59-34.13,41.58c-4.85,17.52-6.99,28.64-7.93,35.12
		c-1.68-5.81-4.29-13.79-8.02-22.53c-5.66-13.25-14.89-30.29-28.44-42.54C205.88,93.86,227.53,44.09,257.22,43.28z M167.8,58.66
		c0.06-0.05,0.13-0.1,0.19-0.15c8.6-7.5,32.4,11.53,40.06,18.79c0.15,0.15,0.32,0.27,0.5,0.37c-5.45,9.35-9.26,17.87-11.16,22.45
		c-1.5-1.15-3.03-2.27-4.62-3.29c-13.38-8.56-28.38-11.1-44.6-7.59C152.59,75.92,159.89,64.44,167.8,58.66z M119.84,193.26
		c0,5.29-6.71,9.76-14.66,9.76s-14.66-4.47-14.66-9.76c0-3.93,3.7-7.4,8.85-8.93c2.36-0.64,5.69-1.06,10.02-0.4
		C115.36,185.17,119.84,188.94,119.84,193.26z M107.81,178.13c-0.86-0.09-1.74-0.15-2.64-0.15c-2.84,0-5.54,0.45-7.99,1.26
		c-0.86,0.26-1.62,0.55-2.28,0.83c-4.06-11.31-6.25-31.92,2.71-50.02c8.68-17.55,25.75-29.39,50.72-35.19
		c15.13-3.52,29.07-1.29,41.45,6.63c27.64,17.68,40.61,58.99,44.36,73.19l-16.76-6.03c-1.08-0.39-2.29-0.07-3.03,0.8l-12.21,14.28
		c-5.16-12.28-16.52-29.34-17.06-30.15c-0.03-0.05-0.07-0.1-0.11-0.15c-21.43-27.92-50.47-18.84-51.2-18.6
		C117.86,138.57,109.96,168.43,107.81,178.13z M153.52,166.63c0,3.81-5.26,7.03-11.49,7.03s-11.49-3.22-11.49-7.03
		c0-2.02,1.49-3.88,3.82-5.17c0.04-0.02,0.08-0.04,0.11-0.06c2.04-1.11,4.69-1.79,7.56-1.79c1.11,0,2.18,0.11,3.2,0.29
		c0.02,0,0.04,0.01,0.05,0.01c0.02,0,0.04,0,0.06,0C150.02,160.81,153.52,163.52,153.52,166.63z M142.03,154.09
		c-2.51,0-4.87,0.39-6.99,1.08c-0.73-3.29-1.75-8.77-1.89-14.3c1.5-0.69,3.07-1.02,4.7-0.9c2.59,0.21,5.22,1.51,7.83,3.57
		c-1.02,4-1.8,8.05-2.26,10.6C142.96,154.11,142.5,154.09,142.03,154.09z M150.89,140.78c-0.13-0.15-0.28-0.29-0.45-0.41
		c-0.69-0.61-1.39-1.16-2.08-1.67c9.11,0.5,21.53,4.19,32.18,18.02c0.78,1.18,10.51,15.91,15.62,27.11l-12.57-5.61
		c-1.06-0.47-2.3-0.23-3.11,0.6l-4.01,4.16c-1.91-4.69-5.45-12.83-10.06-21.14C161.16,152.37,155.97,145.35,150.89,140.78z
		 M294.32,215.62c-6.89-9.8-16.1-19.26-21.46-24.47c4.38-0.77,8.45-1.38,12.19-1.87C288.63,196.47,292.3,207.72,294.32,215.62z
		 M310.88,181.98c-0.61-0.01-1.23-0.01-1.84-0.01c-13.41,0-27.62,1.76-41.58,4.49c-0.87-0.26-1.83-0.09-2.55,0.51
		c-37.28,7.6-72.35,21.78-85.18,27.28c-0.28,0.12-0.52,0.06-0.68-0.02c-0.13-0.06-0.35-0.21-0.44-0.54l-3.69-14.04
		c-0.91-3.45,0.07-7.19,2.55-9.76l5.65-5.85l16.95,7.56c0.04,0.02,0.09,0.03,0.13,0.04c0.07,0.03,0.14,0.06,0.22,0.08
		c0.07,0.02,0.14,0.04,0.21,0.05c0.07,0.02,0.15,0.03,0.22,0.04c0.07,0.01,0.14,0.01,0.22,0.02c0.04,0,0.09,0.01,0.13,0.01
		c0.03,0,0.07-0.01,0.1-0.01c0.06,0,0.12-0.01,0.18-0.01c0.08-0.01,0.16-0.02,0.23-0.03c0.06-0.01,0.13-0.03,0.19-0.04
		c0.03-0.01,0.07-0.01,0.1-0.02c0.03-0.01,0.05-0.03,0.08-0.04c0.11-0.04,0.22-0.08,0.33-0.14c0.05-0.02,0.1-0.05,0.15-0.07
		c0.12-0.07,0.23-0.15,0.34-0.23c0.02-0.02,0.05-0.03,0.07-0.05c0.12-0.1,0.22-0.2,0.32-0.32l14.02-16.4l19.8,7.13
		c0.09,0.03,0.19,0.06,0.28,0.08c0.07,0.02,0.13,0.03,0.2,0.04c0.13,0.02,0.26,0.03,0.39,0.04c0.05,0,0.11,0,0.16-0.01
		c0.13,0,0.25-0.02,0.38-0.04c0.03,0,0.05,0,0.08-0.01c0.01,0,0.03-0.01,0.04-0.01c0.17-0.04,0.33-0.09,0.49-0.15
		c0,0,0.01,0,0.01-0.01c0.14-0.06,0.28-0.14,0.41-0.23c0.04-0.03,0.08-0.06,0.12-0.08c0.09-0.07,0.18-0.14,0.27-0.23
		c0.04-0.04,0.08-0.07,0.11-0.11c0.02-0.02,0.04-0.04,0.06-0.06l12.84-14.66l18.62,7.35c1.05,0.41,2.24,0.15,3.01-0.67l15.22-16.01
		c5.21,2.97,9.18,5.76,12.2,8.32c0.11,0.11,0.23,0.22,0.36,0.31c5.64,4.88,7.82,8.93,8.54,11.87
		C311.4,179.43,311.17,181,310.88,181.98z M376.59,254.87c-2.59,0.16-4.78,1.26-6.32,3.17c-3.43,4.26-2.65,11.24-2.47,12.58
		c0.06,1.02,0.55,5.04,4.17,7.65c2.66,1.92,6.23,2.5,10.64,1.73c-0.43,5.83-2.77,17.23-14.58,17.99c-8.08,0.14-14.67-2.5-18.64-4.6
		c17.73-9.05,16.41-20.38,16.15-21.88c-0.89-6.34-3-10.46-6.26-12.26c-1.66-0.91-4.45-1.64-8.3,0.1c-4.22,1.91-7.03,4.68-8.35,8.24
		c-1.71,4.6-0.27,9.01,0.25,10.34c0.11,0.98,0.01,3.99-5.17,5.31c-2.46,0.64-5.03-0.34-6.55-2.47c-3.63-5.07-3.97-9.75-1.02-13.92
		c7.68-10.86,14.67-18.03,23.85-17.6c2.14,0.1,4.35-0.07,6.68-0.24c2.02-0.15,4-0.29,5.93-0.28c5.04,1.01,8.14,2.02,9.12,2.36
		c0.49,0.36,0.96,0.73,1.42,1.1c0.88,0.78,1.72,1.71,2.5,2.85C378.7,254.87,377.69,254.8,376.59,254.87z M271.99,351.98
		c0.01-0.05,0.01-0.1,0.02-0.14c0.55,0.01,1.11,0.03,1.69,0.06c0.06,0.05,0.11,0.11,0.17,0.15c0.07,0.05,6.88,5.06,8.53,17.24
		c0.2,1.5,1.59,2.57,3.1,2.36c0.07-0.01,7.21-0.89,11.64,2.99c2.12,1.86,3.34,4.63,3.63,8.22c-15.93-3.78-19.53-7.57-23.53-11.81
		c-0.64-0.68-1.29-1.37-1.99-2.07C269.56,363.28,271.97,352.09,271.99,351.98z M306.34,384.08c-0.07-3.59-0.78-6.7-2.16-9.29
		c2.93,3.14,6.07,6.67,9.42,10.64C310.98,384.97,308.57,384.52,306.34,384.08z M287.45,366.03c-0.85-4.26-2.26-7.7-3.77-10.42
		c3.34,2.58,8.33,6.77,14.7,13.15C294.51,366.49,290.17,366.04,287.45,366.03z M269.34,384.83c-5.06-2.89-9.25-6.45-12.45-10.59
		c-4.75-6.14-6.28-11.9-4.18-15.82c1.9-3.55,6.73-5.76,13.67-6.4c-0.58,3.64-1.6,14.28,4.98,20.87c0.66,0.66,1.28,1.31,1.88,1.95
		c5.92,6.27,11.03,11.68,45.11,16.94c0.14,0.02,0.28,0.03,0.42,0.03c0.14,0,0.28-0.02,0.42-0.04c2.02,1.5,7.59,5.13,13.59,4.48
		c1.91-0.21,3.67-0.82,5.28-1.81c-0.35,1.64-0.68,3.47-0.98,5.49C317.17,399.59,289.19,396.18,269.34,384.83z M352.79,399.53
		c-2.84,0.23-6.27,0.39-10.13,0.43c1.66-10.74,4.25-14.47,4.94-15.3c1.94-1.58,2.91-1.6,3.17-1.55c1.61,0.24,3.26,4.74,4.35,7.72
		c1.04,2.82,2.15,5.84,3.81,7.89C357.01,399.07,354.97,399.35,352.79,399.53z M382.2,359.22c0.01,0,0.72,0.49,1.26,3.05
		c-1.42-0.47-2.79-0.91-4.11-1.32C380.6,359.82,381.73,359.12,382.2,359.22z M384.76,368.54c0.43,0.44,1,0.73,1.63,0.81
		c3.92,2.43,7.92,5.86,7.25,9.46c-1.51,8.11-22.96,15.8-29.79,16.87c-0.96,0.17-2.85-4.87-3.54-6.76
		c-1.81-4.94-3.87-10.54-8.71-11.27c-2.26-0.34-4.6,0.45-7.2,2.5l-0.02-0.02c-0.12,0.09-0.32,0.26-0.58,0.52
		c-1.88,1.59-3.9,3.82-6.12,6.74c-1.56,2.04-3.35,3.15-5.47,3.39c-4.48,0.5-9.12-2.94-10.06-3.68
		c-14.95-18.41-26.41-28.93-33.29-34.45c8,0.19,16.19,0,23.66-0.87c2.89,4.39,11.98,16.23,27.97,20c2.15,0.51,4.03,0.94,5.69,1.33
		c12.19,2.84,12.19,2.84,18.32,6.21c0.42,0.23,0.87,0.34,1.32,0.34c0.97,0,1.91-0.52,2.42-1.44c0.73-1.33,0.23-3.02-1.1-3.75
		c-6.77-3.72-7.01-3.77-19.7-6.73c-1.66-0.39-3.54-0.83-5.68-1.33c-11.84-2.79-19.52-10.89-23.09-15.54
		c6.26-1.15,11.71-2.93,15.73-5.54c0.03,0.03,0.05,0.06,0.07,0.08c13.19,12.25,22.29,14.82,34.89,18.38
		C373.84,365.04,378.9,366.47,384.76,368.54z M338.63,341.72c1.45-1.48,3.01-3.2,4.64-5c1.56-1.72,3.25-3.58,5.01-5.4
		c-0.72,5.23-1.21,12.03-0.22,17.88C345.11,347.26,342.02,344.84,338.63,341.72z"/>
</g>
</svg>
